<?xml version="1.0" standalone="no"?>
<!DOCTYPE svg PUBLIC "-//W3C//DTD SVG 20010904//EN"
 "http://www.w3.org/TR/2001/REC-SVG-20010904/DTD/svg10.dtd">
<svg version="1.0" xmlns="http://www.w3.org/2000/svg"
 width="1025.000000pt" height="1025.000000pt" viewBox="0 0 1025.000000 1025.000000"
 preserveAspectRatio="xMidYMid meet">
<metadata>
Created by potrace 1.11, written by Peter Selinger 2001-2013
</metadata>
<g transform="translate(0.000000,1025.000000) scale(0.100000,-0.100000)"
fill="#000000" stroke="none">
<path d="M0 5125 l0 -5125 5125 0 5125 0 0 5125 0 5125 -5125 0 -5125 0 0
-5125z m3088 4930 c101 -24 170 -63 248 -140 117 -116 161 -232 151 -404 -8
-140 -53 -240 -151 -336 -64 -62 -159 -116 -238 -135 -66 -15 -198 -12 -259 6
-227 67 -379 268 -379 501 0 140 51 263 150 364 130 131 306 184 478 144z
m852 -5 c0 -11 -13 -75 -30 -143 -16 -67 -32 -131 -35 -143 -4 -20 -1 -20 79
-16 89 5 125 -6 178 -51 64 -55 97 -178 79 -294 -23 -146 -118 -276 -249 -339
-94 -46 -306 -46 -416 0 l-33 14 54 228 c46 198 139 590 163 692 5 19 10 35
12 37 4 4 152 30 186 34 6 0 12 -8 12 -19z m643 -1 c123 -34 70 -229 -63 -229
-38 0 -86 24 -100 49 -33 63 13 159 86 181 39 11 34 11 77 -1z m2153 1 c6 0
23 -11 38 -25 51 -47 26 -154 -45 -191 -48 -24 -116 -14 -147 22 -64 74 25
219 123 198 11 -2 25 -4 31 -4z m-1776 -118 c0 -5 -9 -42 -20 -83 -31 -116
-36 -109 85 -109 58 0 105 -3 104 -7 0 -5 -8 -39 -18 -78 l-17 -70 -109 -5
-109 -5 -33 -130 c-38 -155 -41 -197 -13 -225 22 -22 90 -27 148 -11 30 9 34
8 42 -15 6 -14 10 -49 10 -79 0 -51 -1 -54 -32 -65 -48 -18 -206 -24 -255 -11
-52 14 -101 55 -119 98 -27 63 -17 144 57 462 39 168 73 308 75 310 6 6 140
28 177 30 15 1 27 -3 27 -7z m718 -197 c23 -10 42 -19 42 -20 0 -8 -54 -131
-62 -141 -6 -8 -23 -7 -61 3 -62 16 -131 9 -175 -17 -96 -58 -131 -247 -63
-332 17 -20 28 -23 93 -23 40 0 87 4 105 8 29 8 32 6 37 -20 3 -15 6 -50 8
-78 2 -47 0 -51 -27 -65 -19 -9 -71 -16 -140 -18 -109 -4 -111 -3 -175 30 -80
41 -113 87 -136 187 -15 69 -15 79 0 158 19 99 48 160 104 224 45 50 139 105
204 119 61 13 197 4 246 -15z m555 -7 c49 -27 102 -94 117 -146 17 -62 12
-193 -10 -265 -23 -75 -86 -174 -133 -209 -70 -54 -118 -71 -210 -76 -100 -5
-157 11 -212 59 -95 84 -110 291 -31 447 51 101 162 193 256 213 62 14 179 1
223 -23z m1058 1 c80 -40 114 -112 106 -223 -4 -63 -53 -288 -90 -416 l-13
-45 -97 -3 c-58 -2 -97 1 -97 7 0 5 16 79 36 163 61 259 68 302 52 335 -12 26
-18 28 -79 31 l-67 3 -37 -158 c-20 -87 -49 -207 -64 -268 l-26 -110 -98 -3
c-78 -2 -97 0 -97 11 0 13 30 143 121 519 l33 138 55 16 c121 37 294 38 362 3z
m-2701 5 c0 -7 -115 -492 -144 -604 l-21 -85 -89 -3 c-49 -2 -93 1 -98 6 -7 7
67 343 137 625 l17 67 99 0 c55 0 99 -3 99 -6z m2147 -16 c-4 -13 -27 -111
-53 -218 -25 -107 -61 -253 -78 -325 l-32 -130 -97 -3 c-81 -2 -97 0 -97 12 0
9 18 89 39 178 22 90 54 224 71 298 17 74 36 152 41 173 l10 37 100 0 c100 0
101 0 96 -22z m-4598 -1154 c206 -51 346 -201 389 -415 14 -72 14 -86 -1 -159
-41 -212 -180 -362 -383 -415 -311 -81 -624 165 -624 489 0 146 46 261 145
362 68 69 135 107 239 134 89 24 151 25 235 4z m831 -61 c-1 -10 -16 -76 -34
-146 -29 -108 -31 -127 -17 -122 36 14 110 17 146 5 100 -33 150 -123 143
-263 -6 -148 -85 -268 -218 -331 -61 -29 -72 -31 -180 -31 -104 0 -174 11
-207 33 -10 6 -1 58 38 217 27 116 70 296 95 400 25 105 49 200 54 212 7 17
22 23 72 31 97 15 108 14 108 -5z m5126 0 c-20 -65 -67 -285 -62 -290 3 -3 25
0 50 6 106 26 202 -1 238 -69 28 -53 24 -157 -12 -313 -51 -220 -46 -207 -86
-207 -29 0 -34 3 -30 18 40 137 86 347 86 393 0 77 -56 129 -140 129 -60 0
-129 -20 -134 -39 -3 -9 -23 -92 -45 -186 -79 -342 -70 -315 -108 -315 -29 0
-33 3 -28 23 2 12 30 126 60 252 30 127 71 298 91 380 57 240 51 223 82 228
15 2 31 5 35 6 5 0 6 -7 3 -16z m-4507 -8 c50 -25 57 -94 15 -144 -64 -77
-184 -48 -184 44 0 89 89 142 169 100z m1980 0 c48 -24 55 -81 18 -136 -57
-85 -187 -62 -187 33 0 50 13 74 53 98 38 24 78 25 116 5z m-1639 -92 c0 -5
-9 -42 -20 -83 -11 -41 -20 -76 -20 -77 0 -2 40 -3 89 -3 50 0 92 -3 95 -8 2
-4 -3 -38 -12 -75 l-16 -67 -96 0 -97 0 -31 -136 c-42 -186 -32 -204 98 -191
66 7 67 7 72 -70 3 -51 -3 -57 -64 -72 -119 -28 -235 -3 -282 62 -32 44 -32
132 -1 267 30 132 94 397 101 422 3 11 23 19 67 26 81 12 117 14 117 5z m653
-174 c32 -14 31 -24 -4 -103 -16 -37 -24 -46 -37 -41 -9 4 -44 9 -78 12 -75 7
-125 -14 -160 -66 -31 -48 -47 -130 -34 -184 13 -61 48 -87 115 -87 29 0 66 5
81 10 15 6 29 9 31 7 2 -2 6 -34 10 -70 6 -66 6 -66 -23 -78 -53 -21 -186 -23
-244 -4 -109 36 -168 140 -157 274 13 161 111 291 252 338 49 16 208 11 248
-8z m488 -7 c78 -40 111 -98 117 -201 5 -88 -13 -164 -56 -245 -78 -143 -266
-208 -403 -138 -90 45 -125 121 -116 252 5 91 34 170 84 231 74 90 147 127
254 128 54 1 77 -4 120 -27z m964 17 c75 -21 135 -106 135 -192 0 -35 -88
-409 -99 -420 -4 -4 -43 -7 -87 -5 -94 4 -90 -20 -33 217 45 187 47 213 19
241 -27 27 -105 28 -118 3 -5 -10 -31 -110 -57 -223 -26 -113 -52 -213 -57
-222 -7 -15 -23 -18 -87 -18 -43 0 -80 2 -83 6 -3 3 2 37 12 77 10 40 42 170
71 289 l52 217 61 15 c34 9 70 17 81 20 42 8 152 5 190 -5z m-2465 -21 c-1
-29 -133 -569 -143 -585 -6 -9 -35 -13 -89 -13 l-81 0 6 33 c12 65 127 543
137 565 9 20 16 22 90 22 76 0 80 -1 80 -22z m1980 3 c0 -10 -27 -128 -59
-262 -33 -134 -62 -260 -66 -279 -11 -55 -20 -60 -106 -60 -62 0 -79 3 -79 15
0 8 25 119 55 247 31 128 61 256 67 283 17 73 20 75 109 75 70 0 79 -2 79 -19z
m1175 -3 c3 -3 0 -17 -6 -31 -12 -26 -13 -26 -88 -20 -69 5 -82 3 -133 -21
-100 -47 -158 -145 -166 -276 -5 -92 12 -141 60 -170 40 -24 126 -27 188 -5
24 8 44 14 46 13 1 -2 4 -14 6 -28 4 -34 -36 -52 -129 -58 -93 -6 -135 3 -174
36 -76 63 -94 193 -46 330 57 165 175 245 349 239 48 -2 90 -6 93 -9z m538 1
c20 -5 37 -12 37 -14 0 -2 -21 -86 -46 -187 -50 -199 -63 -298 -45 -349 13
-38 15 -34 -27 -42 -30 -6 -33 -4 -39 23 -6 30 -26 40 -39 19 -13 -22 -96 -51
-148 -51 -147 -1 -220 137 -171 325 37 142 126 234 265 273 56 15 163 17 213
3z m470 0 c33 -9 37 -13 31 -32 -10 -34 -15 -35 -79 -24 -33 5 -77 7 -98 3
-82 -15 -131 -102 -89 -156 11 -14 52 -43 91 -65 82 -44 111 -82 111 -143 0
-114 -79 -181 -213 -182 -69 0 -153 16 -162 30 -6 10 15 60 25 60 4 0 25 -7
46 -16 54 -22 163 -16 201 12 37 27 53 86 33 121 -8 14 -49 45 -90 68 -92 52
-120 89 -120 157 0 111 80 177 215 178 33 0 77 -5 98 -11z m-4532 -1141 c4
-77 -2 -353 -8 -358 -16 -14 -296 -140 -301 -135 -3 2 55 105 128 227 74 123
141 235 149 250 17 30 31 36 32 16z m1334 -316 c0 -78 1 -142 2 -142 1 0 19
11 39 25 53 36 98 33 139 -8 38 -38 48 -82 43 -197 -5 -114 -22 -87 -28 43 -5
121 -11 137 -59 157 -23 9 -35 8 -64 -3 -58 -25 -72 -57 -69 -156 2 -89 -3
-125 -19 -116 -5 4 -9 121 -9 276 0 212 3 270 13 266 9 -3 12 -41 12 -145z
m-253 -44 l3 -53 38 -3 c46 -4 39 -22 -8 -22 l-34 0 -3 -135 c-2 -82 -7 -135
-13 -135 -6 0 -11 53 -13 135 l-3 135 -34 0 c-44 0 -46 18 -2 22 30 3 32 6 35
43 3 49 9 65 21 65 6 0 11 -24 13 -52z m-291 -96 c39 -41 56 -80 45 -107 -4
-12 -28 -15 -131 -15 -138 0 -140 -1 -110 -60 34 -66 122 -79 180 -29 38 34
54 34 36 0 -29 -52 -133 -68 -191 -28 -90 61 -93 179 -5 256 35 30 43 33 88
28 43 -4 56 -10 88 -45z m1158 12 c40 -36 67 -93 57 -119 -4 -12 -30 -15 -131
-15 -138 0 -140 -1 -110 -60 34 -66 122 -79 180 -29 38 34 54 34 36 0 -29 -53
-133 -68 -192 -28 -66 44 -86 126 -49 201 27 55 73 86 127 86 35 0 50 -7 82
-36z m711 14 c38 -27 70 -81 70 -120 l0 -28 -131 0 -131 0 6 -27 c11 -44 69
-93 111 -93 41 0 90 22 104 47 11 21 26 11 18 -12 -11 -27 -70 -55 -117 -55
-132 0 -193 154 -103 260 46 55 116 66 173 28z m823 11 c12 -6 32 -23 44 -37
l22 -26 20 26 c67 85 190 46 206 -65 9 -60 2 -192 -10 -190 -6 2 -12 51 -15
110 -5 119 -15 144 -59 162 -24 11 -35 10 -63 -3 -52 -25 -62 -49 -68 -164 -3
-58 -9 -102 -15 -102 -6 0 -12 46 -15 107 -3 60 -11 118 -17 130 -19 32 -75
48 -109 31 -54 -26 -67 -58 -72 -172 -2 -58 -9 -103 -13 -100 -13 7 -11 294 1
294 6 0 10 -9 10 -20 0 -25 2 -25 46 5 40 27 73 31 107 14z m-1283 -24 c0 -14
3 -25 6 -25 3 0 19 11 36 25 28 24 68 34 68 17 0 -5 -14 -15 -32 -23 -57 -25
-73 -59 -76 -165 -6 -148 -22 -110 -22 51 0 90 4 145 10 145 6 0 10 -11 10
-25z m720 -90 c0 -97 2 -105 26 -134 20 -24 34 -31 61 -31 77 0 101 40 110
180 3 55 10 100 15 100 12 0 10 -287 -2 -295 -5 -3 -10 3 -10 14 0 30 -13 32
-38 6 -31 -32 -73 -40 -114 -21 -56 27 -68 59 -68 186 0 71 4 109 10 105 6 -3
10 -52 10 -110z m-3053 -134 c68 -40 125 -76 128 -80 8 -13 10 -230 2 -237 -4
-4 -9 -5 -10 -3 -23 27 -287 409 -287 414 0 4 10 1 23 -7 12 -8 77 -47 144
-87z m825 -782 c29 -6 86 -26 127 -45 96 -44 193 -141 235 -234 16 -36 34 -76
40 -89 6 -13 11 -72 11 -130 0 -113 -16 -172 -72 -271 -64 -112 -213 -214
-347 -239 -231 -42 -462 71 -569 279 -54 105 -66 262 -28 380 78 248 346 403
603 349z m933 -243 c76 -35 83 -48 51 -91 -15 -19 -31 -35 -35 -35 -5 0 -29
11 -52 25 -51 29 -102 32 -157 10 -124 -50 -137 -259 -22 -338 36 -25 147 -23
180 3 14 11 31 20 39 20 18 0 61 -39 61 -55 0 -19 -42 -52 -93 -74 -136 -58
-303 3 -363 134 -19 40 -24 67 -24 133 0 117 37 195 118 246 57 35 91 44 172
45 59 1 86 -4 125 -23z m475 -96 c127 -314 171 -432 166 -446 -8 -20 -79 -18
-105 4 -11 9 -29 42 -39 72 l-19 55 -109 3 -110 3 -19 -57 c-11 -32 -28 -66
-39 -76 -20 -19 -80 -24 -103 -10 -10 6 15 77 95 278 59 148 111 275 116 282
5 9 26 12 64 10 l55 -3 47 -115z m515 94 c46 -24 53 -42 29 -78 -18 -29 -46
-33 -84 -11 -34 20 -99 19 -122 -2 -10 -9 -18 -29 -18 -45 0 -28 13 -38 95
-68 129 -48 155 -75 155 -161 0 -89 -34 -140 -114 -173 -72 -30 -189 -12 -253
40 -25 20 -25 21 -9 53 23 43 41 48 90 24 60 -31 75 -34 113 -27 41 8 68 43
59 79 -6 25 -69 65 -101 65 -28 0 -114 49 -131 75 -52 80 -12 199 81 242 44
20 160 13 210 -13z m239 20 c13 -5 16 -25 16 -120 l0 -114 120 0 119 0 3 118
3 117 48 3 c27 2 55 -2 63 -9 19 -16 21 -538 2 -557 -16 -16 -90 -16 -106 0
-8 8 -12 50 -12 125 l0 113 -120 0 -120 0 0 -119 c0 -132 0 -131 -69 -131 -20
0 -42 5 -49 12 -9 9 -12 84 -12 278 0 194 3 269 12 278 13 13 75 16 102 6z
m-2369 -2749 c181 -48 322 -198 356 -380 12 -65 7 -173 -10 -217 -10 -27 -14
-28 -76 -28 l-65 0 0 205 c0 113 -4 205 -9 205 -4 0 -77 -70 -160 -157 l-153
-156 -159 159 c-87 87 -160 154 -160 149 -1 -6 -2 -98 -3 -205 l-1 -195 -68
-3 c-64 -3 -68 -2 -77 22 -17 45 -22 149 -11 211 35 188 187 352 367 394 61
14 165 12 229 -4z m704 -437 c25 -76 48 -138 51 -138 3 0 26 62 51 138 l46
137 41 3 c36 3 42 0 46 -20 9 -37 66 -384 66 -397 0 -6 -17 -11 -39 -11 l-40
0 -10 53 c-5 28 -12 70 -16 92 -11 76 -17 97 -25 88 -4 -4 -24 -59 -45 -121
l-37 -113 -40 3 -40 3 -37 112 c-20 61 -39 114 -42 118 -4 3 -14 -36 -23 -87
-29 -162 -23 -148 -67 -148 -27 0 -39 4 -39 15 0 15 44 274 61 363 l11 53 41
-3 42 -3 44 -137z m638 121 c77 -37 123 -117 123 -211 0 -47 -44 -131 -84
-162 -38 -28 -113 -49 -151 -41 -14 3 -37 7 -51 10 -14 3 -45 24 -70 47 -82
75 -94 191 -31 284 60 88 170 119 264 73z m351 -111 l87 -133 3 133 3 133 42
-3 42 -3 3 -213 2 -213 -46 3 -47 3 -81 127 -81 127 -5 -127 -5 -127 -42 -3
-43 -3 0 215 0 216 40 0 41 0 87 -132z m542 92 l0 -39 -97 -3 -98 -3 0 -39 0
-39 98 2 97 2 0 -45 0 -45 -97 -3 -98 -3 0 -45 0 -45 98 -3 97 -3 0 -39 0 -40
-140 0 -140 0 0 215 0 215 140 0 140 0 0 -40z m339 27 c43 -22 66 -64 66 -119
0 -44 -4 -53 -37 -83 l-36 -33 44 -84 c24 -46 44 -86 44 -90 0 -5 -19 -8 -42
-8 l-43 0 -48 91 c-47 87 -50 90 -80 87 l-32 -3 -3 -87 -3 -88 -39 0 -40 0 0
215 0 215 113 0 c69 0 121 -5 136 -13z m451 -22 c64 -45 90 -97 90 -184 0 -80
-7 -100 -54 -149 -47 -50 -83 -65 -154 -65 -85 1 -145 37 -184 112 -60 115
-20 242 95 301 61 31 150 25 207 -15z m-3243 -247 l102 -101 97 101 c53 56
101 102 105 102 5 0 9 -56 9 -125 l0 -125 100 0 c55 0 100 -4 100 -9 0 -30
-109 -132 -184 -172 -196 -105 -418 -70 -578 92 -38 38 -68 73 -68 79 0 6 40
10 100 10 l100 0 0 125 c0 69 3 125 7 125 4 0 54 -46 110 -102z m-235 -873 c0
-5 -5 -11 -11 -13 -6 -2 -11 4 -11 13 0 9 5 15 11 13 6 -2 11 -8 11 -13z m-92
-145 c0 -5 -5 -10 -11 -10 -5 0 -7 5 -4 10 3 6 8 10 11 10 2 0 4 -4 4 -10z
m180 0 c0 -5 -2 -10 -4 -10 -3 0 -8 5 -11 10 -3 6 -1 10 4 10 6 0 11 -4 11
-10z m-90 -30 c0 -5 -2 -10 -4 -10 -3 0 -8 5 -11 10 -3 6 -1 10 4 10 6 0 11
-4 11 -10z m-140 -56 c0 -8 -5 -12 -10 -9 -6 4 -8 11 -5 16 9 14 15 11 15 -7z
m280 0 c0 -8 -4 -12 -10 -9 -5 3 -10 10 -10 16 0 5 5 9 10 9 6 0 10 -7 10 -16z
m1101 -80 c3 -43 6 -74 7 -69 1 6 15 18 31 28 56 33 120 16 146 -38 17 -38 22
-230 5 -240 -5 -3 -10 -3 -11 2 0 4 -2 60 -4 123 -4 103 -7 117 -26 133 -32
26 -74 21 -111 -12 -33 -29 -33 -30 -38 -138 -8 -182 -25 -124 -28 98 -2 159
0 200 10 197 8 -3 15 -33 19 -84z m-299 9 c3 -35 6 -38 36 -41 43 -4 41 -22
-3 -22 l-35 0 0 -113 c0 -120 6 -137 47 -137 13 0 23 -4 23 -10 0 -5 -13 -10
-29 -10 -50 0 -61 28 -61 157 l0 113 -25 0 c-31 0 -33 17 -2 22 18 2 23 10 25
41 2 20 7 37 12 37 5 0 10 -17 12 -37z m-934 -11 c2 -7 -3 -12 -12 -12 -9 0
-16 7 -16 16 0 17 22 14 28 -4z m-208 -7 c0 -8 -4 -15 -10 -15 -5 0 -7 7 -4
15 4 8 8 15 10 15 2 0 4 -7 4 -15z m400 -6 c0 -6 -4 -7 -10 -4 -5 3 -10 11
-10 16 0 6 5 7 10 4 6 -3 10 -11 10 -16z m451 -32 c35 -23 66 -85 56 -112 -5
-12 -27 -15 -117 -15 -104 0 -110 -1 -110 -20 0 -29 26 -76 52 -94 29 -21 97
-20 126 0 32 22 43 7 12 -16 -38 -30 -111 -27 -150 6 -42 35 -60 74 -60 126 2
115 105 183 191 125z m1191 -16 c30 -33 44 -72 34 -96 -4 -12 -26 -15 -110
-15 -58 0 -107 -4 -111 -9 -9 -16 25 -89 50 -105 31 -20 95 -21 121 -1 34 25
52 17 21 -10 -22 -20 -39 -25 -79 -25 -45 0 -54 4 -88 38 -61 60 -66 150 -13
213 34 40 58 50 108 44 29 -3 48 -12 67 -34z m368 30 c0 -5 -15 -12 -34 -15
-59 -11 -70 -34 -76 -159 -7 -162 -24 -143 -28 31 -2 95 1 142 8 142 6 0 13
-7 16 -15 5 -13 10 -12 31 5 26 20 83 28 83 11z m340 -6 c36 -18 62 -66 58
-103 l-3 -27 -107 -3 -108 -3 0 -30 c0 -22 10 -41 34 -65 28 -28 42 -34 75
-34 23 0 53 7 67 16 33 22 45 8 14 -16 -31 -24 -99 -26 -141 -5 -44 23 -69 71
-69 133 0 64 20 106 63 132 38 24 78 25 117 5z m888 -10 l30 -25 38 25 c66 45
145 25 163 -43 13 -45 14 -219 2 -226 -5 -3 -10 47 -12 115 -4 113 -6 122 -28
140 -30 24 -68 24 -109 -1 -43 -27 -52 -54 -52 -166 0 -61 -4 -93 -10 -89 -6
4 -10 54 -10 116 0 61 -5 119 -10 129 -15 27 -71 35 -109 16 -47 -25 -61 -62
-61 -166 0 -53 -4 -90 -10 -90 -6 0 -10 53 -10 140 0 87 4 140 10 140 6 0 10
-9 10 -20 0 -18 2 -18 36 5 48 32 94 32 132 0z m-606 -106 c3 -106 5 -122 22
-135 32 -23 90 -18 125 12 l31 26 0 109 c0 66 4 109 10 109 6 0 10 -56 10
-147 -1 -124 -3 -145 -14 -131 -11 15 -15 16 -32 3 -11 -8 -42 -15 -71 -15
-45 0 -54 4 -77 31 -25 29 -26 36 -26 145 0 63 4 114 9 114 5 0 11 -54 13
-121z m-3062 91 c0 -5 -4 -10 -10 -10 -5 0 -10 5 -10 10 0 6 5 10 10 10 6 0
10 -4 10 -10z m105 0 c-3 -5 -11 -10 -16 -10 -6 0 -7 5 -4 10 3 6 11 10 16 10
6 0 7 -4 4 -10z m250 0 c3 -5 1 -10 -4 -10 -6 0 -11 5 -11 10 0 6 2 10 4 10 3
0 8 -4 11 -10z m105 0 c0 -5 -2 -10 -4 -10 -3 0 -8 5 -11 10 -3 6 -1 10 4 10
6 0 11 -4 11 -10z m-106 -64 c64 -30 116 -58 115 -63 0 -4 -53 -42 -117 -84
l-117 -77 -3 42 c-2 22 -7 45 -13 51 -5 5 -9 49 -9 97 0 69 3 88 14 88 8 0 67
-24 130 -54z m-204 10 c0 -3 -4 -8 -10 -11 -5 -3 -10 -1 -10 4 0 6 5 11 10 11
6 0 10 -2 10 -4z m-192 -18 c-6 -18 -28 -21 -28 -4 0 9 7 16 16 16 9 0 14 -5
12 -12z m560 -5 c6 -19 -25 -16 -32 3 -4 11 -1 14 11 12 9 -2 18 -9 21 -15z
m-443 -13 c-3 -5 -12 -10 -18 -10 -7 0 -6 4 3 10 19 12 23 12 15 0z m12 -56
c-3 -3 -12 -4 -19 -1 -8 3 -5 6 6 6 11 1 17 -2 13 -5z m-129 -22 c2 -7 -3 -12
-12 -12 -9 0 -16 7 -16 16 0 17 22 14 28 -4z m192 8 c8 -5 11 -10 5 -10 -5 0
-17 5 -25 10 -8 5 -10 10 -5 10 6 0 17 -5 25 -10z m362 -5 c0 -5 -5 -11 -11
-13 -6 -2 -11 4 -11 13 0 9 5 15 11 13 6 -2 11 -8 11 -13z m-512 -86 c0 -6 -4
-7 -10 -4 -5 3 -10 11 -10 16 0 6 5 7 10 4 6 -3 10 -11 10 -16z m430 -43 c0
-3 -4 -8 -10 -11 -5 -3 -10 -1 -10 4 0 6 5 11 10 11 6 0 10 -2 10 -4z m2575
-136 c0 -132 0 -135 -22 -138 -13 -2 -23 0 -23 5 -1 12 -1 245 -1 261 1 8 10
12 24 10 22 -3 22 -6 22 -138z m689 114 c8 -21 -1 -34 -24 -34 -22 0 -33 23
-17 39 16 16 34 14 41 -5z m-800 -75 c30 -24 35 -59 8 -59 -9 0 -23 9 -30 20
-26 43 -72 17 -72 -40 0 -55 40 -81 70 -45 16 19 50 20 50 1 0 -24 -50 -56
-87 -56 -52 0 -83 37 -83 97 0 26 6 55 13 64 33 42 90 50 131 18z m303 -5 c8
-10 13 -46 13 -86 0 -37 0 -71 0 -75 0 -5 -29 -9 -64 -10 -51 -2 -67 2 -85 18
-27 25 -27 47 1 76 15 16 33 23 60 23 27 0 38 4 38 15 0 21 -29 31 -51 17 -21
-13 -59 -16 -59 -4 1 47 116 68 147 26z m178 16 c29 -11 43 -36 27 -52 -7 -7
-19 -5 -40 7 -29 18 -62 15 -62 -4 0 -6 18 -15 41 -21 40 -11 79 -41 79 -60 0
-6 -11 -22 -25 -35 -43 -44 -145 -25 -145 26 0 23 38 27 46 4 4 -9 19 -15 36
-15 42 0 34 31 -12 43 -71 18 -90 60 -44 96 29 23 59 26 99 11z m211 -13 c16
-14 24 -29 20 -35 -10 -16 -31 -15 -46 3 -7 8 -23 15 -37 15 -39 0 -25 -33 19
-43 98 -23 81 -117 -21 -117 -28 0 -81 33 -81 51 0 19 31 21 50 4 20 -18 61
-17 67 1 2 6 -20 20 -49 30 -50 18 -53 21 -53 54 0 27 6 37 25 47 38 19 76 16
106 -10z m109 1 c4 -19 1 -139 -4 -170 0 -5 -10 -8 -21 -8 -19 0 -20 7 -20 93
0 52 3 97 7 100 14 14 33 6 38 -15z m174 9 c13 -6 28 -22 32 -35 12 -32 -16
-41 -45 -13 -28 26 -52 27 -66 2 -14 -26 -13 -74 2 -89 17 -17 57 -15 64 3 7
17 40 20 49 5 3 -5 -5 -21 -19 -35 -33 -33 -85 -34 -123 -1 -24 21 -28 32 -28
76 0 44 4 55 28 76 31 26 69 30 106 11z m-3499 -7 c0 -5 -5 -10 -11 -10 -5 0
-7 5 -4 10 3 6 8 10 11 10 2 0 4 -4 4 -10z m-58 -92 c-7 -7 -12 -8 -12 -2 0
14 12 26 19 19 2 -3 -1 -11 -7 -17z m-81 -141 c-13 -13 -26 -3 -16 12 3 6 11
8 17 5 6 -4 6 -10 -1 -17z"/>
<path d="M3845 9566 c-14 -10 -31 -62 -61 -187 -46 -194 -46 -197 28 -185 111
18 184 100 202 228 8 52 -6 119 -30 143 -20 19 -113 20 -139 1z"/>
<path d="M6025 9576 c-68 -30 -116 -121 -123 -231 -3 -61 -1 -74 20 -105 21
-30 30 -35 70 -38 42 -3 51 1 87 33 53 48 81 123 81 215 0 84 -13 116 -53 130
-38 13 -45 12 -82 -4z"/>
<path d="M2900 8089 c-13 -6 -26 -11 -28 -13 -2 -2 -20 -73 -42 -157 -42 -167
-41 -172 19 -164 55 7 74 16 109 49 65 60 94 155 72 235 -15 56 -65 76 -130
50z"/>
<path d="M4872 8080 c-73 -45 -115 -223 -69 -293 24 -37 92 -38 135 -2 78 65
105 241 45 300 -20 21 -72 19 -111 -5z"/>
<path d="M7049 8154 c-63 -19 -141 -91 -175 -160 -31 -64 -43 -171 -25 -227
29 -87 125 -114 212 -59 56 36 69 53 76 94 3 18 22 105 44 193 29 120 35 161
26 167 -19 12 -108 8 -158 -8z"/>
<path d="M3839 6627 c-40 -27 -65 -67 -56 -90 10 -25 214 -25 224 0 9 23 -16
63 -56 90 -43 29 -69 29 -112 0z"/>
<path d="M5009 6627 c-40 -27 -65 -67 -56 -90 5 -14 23 -17 112 -17 117 0 128
6 103 57 -16 33 -72 73 -103 73 -12 0 -37 -10 -56 -23z"/>
<path d="M5740 6632 c-38 -19 -75 -74 -66 -97 4 -12 27 -15 115 -15 60 0 112
4 115 8 10 16 -29 77 -63 99 -41 28 -55 28 -101 5z"/>
<path d="M3632 5483 c-121 -49 -208 -159 -233 -295 -34 -184 83 -371 269 -428
81 -25 153 -25 234 0 230 71 338 317 236 537 -34 75 -120 154 -201 186 -94 38
-214 38 -305 0z m216 -65 l3 -48 65 0 64 0 0 -46 c0 -42 -8 -57 -85 -164 -47
-65 -93 -124 -102 -132 -14 -11 -1 -14 88 -18 l104 -5 0 -60 0 -60 -67 -3 -67
-3 -3 -42 -3 -42 -60 0 -60 0 -3 42 -3 42 -67 3 -67 3 -3 38 c-3 32 5 49 60
125 34 48 82 110 105 139 l43 52 -93 3 -92 3 -3 63 -3 62 61 0 60 0 0 43 c0
24 3 47 7 51 4 4 32 6 63 4 l55 -3 3 -47z"/>
<path d="M5182 5239 c-23 -59 -62 -171 -62 -175 0 -2 33 -4 74 -4 l74 0 -35
97 c-19 54 -36 100 -38 102 -3 2 -8 -7 -13 -20z"/>
<path d="M4869 2263 c-82 -51 -82 -195 1 -238 69 -35 150 -9 181 58 23 52 23
66 3 117 -28 71 -122 103 -185 63z"/>
<path d="M6090 2240 l0 -41 73 3 c68 3 72 4 75 27 5 36 -22 51 -90 51 l-58 0
0 -40z"/>
<path d="M6524 2262 c-111 -70 -65 -252 63 -252 95 0 139 52 134 163 -1 16
-15 42 -34 63 -28 31 -41 37 -83 41 -37 3 -57 -1 -80 -15z"/>
<path d="M3784 840 c-25 -10 -64 -57 -64 -76 0 -11 21 -14 95 -14 90 0 95 1
95 21 0 11 -13 34 -29 50 -30 29 -58 35 -97 19z"/>
<path d="M4954 840 c-25 -10 -64 -57 -64 -76 0 -11 22 -14 100 -14 55 0 100 2
100 4 0 1 -5 17 -11 35 -17 49 -74 72 -125 51z"/>
<path d="M5678 835 c-23 -13 -58 -61 -58 -80 0 -3 45 -5 100 -5 92 0 100 1
100 19 0 56 -87 97 -142 66z"/>
<path d="M6102 337 c-16 -19 1 -39 29 -35 16 2 25 11 27 26 3 18 -1 22 -21 22
-14 0 -29 -6 -35 -13z"/>
</g>
</svg>
