<svg id="Layer_1" data-name="Layer 1" xmlns="http://www.w3.org/2000/svg" viewBox="0 0 425.83 64"><defs><style>.cls-1{fill:#fff;}.cls-2{fill:#66991b;}.cls-3{fill:#e4e5e6;}</style></defs><title>bitcoinCashWhite</title><rect class="cls-1" x="8.99" y="8.41" width="46.01" height="46.01" rx="12" ry="12"/><path class="cls-2" d="M29.21,32.37L27.28,40.1C29.66,40.69,37,43,38.08,38.69,39.22,34.14,31.59,33,29.21,32.37Z"/><path class="cls-2" d="M31.84,21.83l-1.75,7c2,0.49,8.09,2.51,9.08-1.46C40.2,23.24,33.82,22.32,31.84,21.83Z"/><path class="cls-2" d="M39.73,1A32,32,0,1,0,63,39.74,32,32,0,0,0,39.73,1Zm6.37,26.48c-0.46,3.12-2.19,4.63-4.48,5.16,3.15,1.64,4.75,4.16,3.23,8.52C43,46.53,38.45,47,32.46,45.85L31,51.67,27.5,50.8l1.43-5.74c-0.91-.23-1.84-0.47-2.8-0.73L24.7,50.1l-3.51-.87,1.45-5.83-2.5-.65-4.57-1.14,1.74-4s2.59,0.69,2.55.64a1.28,1.28,0,0,0,1.61-.83l2.3-9.21,0.37,0.09-0.37-.12,1.64-6.57a1.87,1.87,0,0,0-1.64-2c0.06,0-2.55-.63-2.55-0.63l0.93-3.75L27,16.37v0l2.24,0.53,1.44-5.77L34.19,12l-1.41,5.65c0.94,0.21,1.89.43,2.81,0.66L37,12.72l3.51,0.88-1.44,5.77C43.5,20.89,46.74,23.18,46.11,27.44Z"/><path class="cls-3" d="M92.48,21a13.55,13.55,0,0,1,6,1.22,11.87,11.87,0,0,1,4.18,3.31,13.83,13.83,0,0,1,2.45,4.9,22.22,22.22,0,0,1,.79,6A24.64,24.64,0,0,1,99,53.61a23.49,23.49,0,0,1-7.49,5.18,22.92,22.92,0,0,1-9.36,1.91l-2.27,0a33.27,33.27,0,0,1-3.71-.32,43.51,43.51,0,0,1-4.43-.86,22.47,22.47,0,0,1-4.43-1.58L79.81,5.55,91,3.82,86.5,22.4a17.19,17.19,0,0,1,2.88-1A12.77,12.77,0,0,1,92.48,21ZM83.12,51.84a9.72,9.72,0,0,0,4.75-1.22,12.58,12.58,0,0,0,3.85-3.28,16.45,16.45,0,0,0,2.56-4.64,15.78,15.78,0,0,0,.94-5.4,10.63,10.63,0,0,0-1.15-5.4Q92.91,30,89.82,30a12.71,12.71,0,0,0-2.63.36,6.45,6.45,0,0,0-2.92,1.51L79.52,51.56l0.76,0.14a5.54,5.54,0,0,0,.68.11q0.36,0,.86,0h1.3Z"/><path class="cls-3" d="M119.41,59.69H108.75l9-37.87h10.73Zm5.18-42.48a6.61,6.61,0,0,1-4-1.33,4.73,4.73,0,0,1-1.8-4.07A6.72,6.72,0,0,1,119.37,9,7.52,7.52,0,0,1,121,6.66a7.8,7.8,0,0,1,2.34-1.55,7.1,7.1,0,0,1,2.84-.58,6.62,6.62,0,0,1,4,1.33A4.73,4.73,0,0,1,132,9.94a6.74,6.74,0,0,1-.61,2.84,7.54,7.54,0,0,1-1.62,2.3,7.8,7.8,0,0,1-2.34,1.55A7.08,7.08,0,0,1,124.59,17.21Z"/><path class="cls-3" d="M139.42,12.39l11.16-1.73-2.74,11.16h12l-2.16,8.78H145.76l-3.17,13.25a17.47,17.47,0,0,0-.54,3.1,5.07,5.07,0,0,0,.36,2.48A3.31,3.31,0,0,0,144,51.05a7.17,7.17,0,0,0,3.17.58,17,17,0,0,0,3.35-.32,24.68,24.68,0,0,0,3.28-.9l0.79,8.21A38.27,38.27,0,0,1,149.93,60a27.14,27.14,0,0,1-6,.58,16.45,16.45,0,0,1-7.7-1.48,8.52,8.52,0,0,1-3.89-4,12.76,12.76,0,0,1-1-5.87,37.72,37.72,0,0,1,1-7Z"/><path class="cls-3" d="M160.16,44.57a26.55,26.55,0,0,1,1.58-9.22,22.67,22.67,0,0,1,4.54-7.56,21.21,21.21,0,0,1,7.16-5.11,22.88,22.88,0,0,1,9.4-1.87,25,25,0,0,1,5.8.61A23,23,0,0,1,193.28,23l-3.67,8.35q-1.44-.58-3-1a13.22,13.22,0,0,0-3.78-.47,10.57,10.57,0,0,0-8.5,3.64q-3.1,3.64-3.1,9.9a10.16,10.16,0,0,0,1.58,5.94q1.58,2.27,5.83,2.27a18.53,18.53,0,0,0,4-.43,19.54,19.54,0,0,0,3.46-1.08l0.79,8.57a37,37,0,0,1-4.43,1.4,24.24,24.24,0,0,1-5.87.61,19.58,19.58,0,0,1-7.56-1.3A14.31,14.31,0,0,1,164,55.91a13.18,13.18,0,0,1-2.92-5.15A21.1,21.1,0,0,1,160.16,44.57Z"/><path class="cls-3" d="M207.89,60.7a17.41,17.41,0,0,1-6.62-1.15,12.25,12.25,0,0,1-4.64-3.24,14,14,0,0,1-2.77-4.93,20.06,20.06,0,0,1-.94-6.3,27.82,27.82,0,0,1,1.4-8.64,24.72,24.72,0,0,1,4.14-7.78,22.13,22.13,0,0,1,6.7-5.65,18.39,18.39,0,0,1,9.07-2.2A17.48,17.48,0,0,1,220.82,22a12.23,12.23,0,0,1,4.68,3.24,14,14,0,0,1,2.77,4.93,20.1,20.1,0,0,1,.94,6.3,28.51,28.51,0,0,1-1.37,8.64,25,25,0,0,1-4,7.78,21.15,21.15,0,0,1-6.66,5.65A18.9,18.9,0,0,1,207.89,60.7Zm5.33-30.82A6.71,6.71,0,0,0,209,31.25a11.72,11.72,0,0,0-3,3.46,17,17,0,0,0-1.84,4.57,19.73,19.73,0,0,0-.61,4.72,11.35,11.35,0,0,0,1.15,5.65q1.15,2,4.18,2a6.71,6.71,0,0,0,4.18-1.37,11.72,11.72,0,0,0,3-3.46,17.07,17.07,0,0,0,1.84-4.57,19.77,19.77,0,0,0,.61-4.72,11.36,11.36,0,0,0-1.15-5.65Q216.25,29.88,213.22,29.88Z"/><path class="cls-3" d="M242.74,59.69H232.08l9-37.87h10.73Zm5.18-42.48a6.61,6.61,0,0,1-4-1.33,4.73,4.73,0,0,1-1.8-4.07A6.73,6.73,0,0,1,242.7,9a7.51,7.51,0,0,1,1.62-2.3,7.79,7.79,0,0,1,2.34-1.55,7.1,7.1,0,0,1,2.84-.58,6.62,6.62,0,0,1,4,1.33,4.73,4.73,0,0,1,1.8,4.07,6.74,6.74,0,0,1-.61,2.84,7.54,7.54,0,0,1-1.62,2.3,7.8,7.8,0,0,1-2.34,1.55A7.08,7.08,0,0,1,247.92,17.21Z"/><path class="cls-3" d="M261.17,23.55q1.22-.36,2.7-0.83t3.31-.86a41.53,41.53,0,0,1,4.1-.65,47,47,0,0,1,5.15-.25q8.5,0,11.66,4.9t1.08,13.39l-4.9,20.45H273.56l4.75-20q0.43-1.87.68-3.64a8.86,8.86,0,0,0,0-3.1,3.67,3.67,0,0,0-1.33-2.16,5.12,5.12,0,0,0-3.2-.83,21.65,21.65,0,0,0-4.25.43l-7,29.3H252.46Z"/><path class="cls-2" d="M319.56,57.89a17.33,17.33,0,0,1-4.43,1.8,23.94,23.94,0,0,1-6.66.86q-6.55,0-9.86-3.74t-3.31-10.3a29.28,29.28,0,0,1,1.51-9.4,24.1,24.1,0,0,1,4.43-8,21.44,21.44,0,0,1,7.16-5.51,21.91,21.91,0,0,1,9.65-2.05,23.31,23.31,0,0,1,7.42,1.22l-1.94,4.25a15.65,15.65,0,0,0-3.28-.9,20.44,20.44,0,0,0-3.13-.25,14.89,14.89,0,0,0-6.95,1.62,16.63,16.63,0,0,0-5.36,4.39,20.59,20.59,0,0,0-3.46,6.41A23.86,23.86,0,0,0,300.12,46a11.63,11.63,0,0,0,2.2,7.49q2.2,2.74,7,2.74a16.69,16.69,0,0,0,3.06-.29,26.07,26.07,0,0,0,2.84-.68,22.73,22.73,0,0,0,2.3-.83,8.46,8.46,0,0,0,1.51-.79Z"/><path class="cls-2" d="M351.28,60.12a11.8,11.8,0,0,1-.75-2,14.28,14.28,0,0,1-.47-2.27,17,17,0,0,1-5.3,3.6A14.86,14.86,0,0,1,339,60.63a12.31,12.31,0,0,1-4.4-.79,9.87,9.87,0,0,1-3.68-2.45,12.23,12.23,0,0,1-2.56-4.28,17.92,17.92,0,0,1-1-6.23,27.89,27.89,0,0,1,1.87-10.44,22.83,22.83,0,0,1,5.22-8,23.53,23.53,0,0,1,7.93-5.08,27,27,0,0,1,10-1.8A24.63,24.63,0,0,1,361,23.12l-5.54,22.39q-0.43,1.8-.72,3.38a16.89,16.89,0,0,0-.29,3,18,18,0,0,0,.36,3.67,18.89,18.89,0,0,0,1.3,3.82Zm4.18-33.62q-1.3-.29-2.38-0.43a17,17,0,0,0-2.24-.14,17.54,17.54,0,0,0-7.94,1.73,18.21,18.21,0,0,0-5.84,4.54,20.1,20.1,0,0,0-3.64,6.41,22,22,0,0,0-1.26,7.34,17.9,17.9,0,0,0,.58,4.93A8.5,8.5,0,0,0,334.33,54a6,6,0,0,0,2.35,1.73,7.54,7.54,0,0,0,2.85.54,11.51,11.51,0,0,0,5.56-1.4,18.24,18.24,0,0,0,4.91-4,20.28,20.28,0,0,1,.58-4.46q0.58-2.52,1.08-4.54Z"/><path class="cls-2" d="M363.41,53.79a20.63,20.63,0,0,0,4.68,1.94,18.73,18.73,0,0,0,4.54.5,14.83,14.83,0,0,0,3.46-.4A9.19,9.19,0,0,0,379,54.65a5.8,5.8,0,0,0,1.94-2.09,6.13,6.13,0,0,0,.72-3,4.61,4.61,0,0,0-1-3.1A9.94,9.94,0,0,0,378,44.32q-1.55-.9-3.35-1.76a20.31,20.31,0,0,1-3.35-2,9.94,9.94,0,0,1-2.59-2.88,8.53,8.53,0,0,1-1-4.46,11.26,11.26,0,0,1,1.15-5.29,10.23,10.23,0,0,1,3.1-3.6,13.12,13.12,0,0,1,4.46-2.05,20.73,20.73,0,0,1,5.18-.65,26.63,26.63,0,0,1,4.57.4,23.83,23.83,0,0,1,4.36,1.19l-1.87,4.18a17.87,17.87,0,0,0-3.46-1,20.22,20.22,0,0,0-4-.4,15.44,15.44,0,0,0-3.35.36,8.21,8.21,0,0,0-2.84,1.19,6.58,6.58,0,0,0-2,2.09,5.85,5.85,0,0,0-.76,3.06,4.6,4.6,0,0,0,1,3.1,10.75,10.75,0,0,0,2.56,2.16,28.86,28.86,0,0,0,3.35,1.76,17.16,17.16,0,0,1,3.35,2A10.83,10.83,0,0,1,385,44.39a7.52,7.52,0,0,1,1,4.14A11.79,11.79,0,0,1,384.9,54a10.62,10.62,0,0,1-3.13,3.74,13.21,13.21,0,0,1-4.46,2.12,19.71,19.71,0,0,1-5.18.68,26.35,26.35,0,0,1-5.62-.61A18.27,18.27,0,0,1,361.39,58Z"/><path class="cls-2" d="M397.4,59.69h-4.67l13.1-55,4.88-.86L406,23.48a22.47,22.47,0,0,1,8.56-1.87,13.84,13.84,0,0,1,4.53.72,10.47,10.47,0,0,1,3.67,2.16,9.92,9.92,0,0,1,2.48,3.64,13.74,13.74,0,0,1,.9,5.22,26.82,26.82,0,0,1-.29,3.85,40.51,40.51,0,0,1-.79,4l-4.46,18.5H415.9l4-16.56q0.58-2.38,1.08-4.82a23.28,23.28,0,0,0,.5-4.68,8.63,8.63,0,0,0-.68-3.64,6.51,6.51,0,0,0-1.8-2.38,7,7,0,0,0-2.63-1.3,12.53,12.53,0,0,0-3.17-.4,21.13,21.13,0,0,0-4.22.43,31.3,31.3,0,0,0-4,1.08Z"/></svg>