<svg id="Layer_1" data-name="Layer 1" xmlns="http://www.w3.org/2000/svg" viewBox="0 0 1970 446.02"><defs><style>.cls-1{fill:#bebebe;}.cls-2{fill:#fff;}.cls-3{fill:#bebebe;}</style></defs><title>litecoin</title><path class="cls-1" d="M446,223.44C446,346.37,346.35,446,223.43,446S0.86,346.37.86,223.44,100.51,0.88,223.43.88,446,100.52,446,223.44"/><path class="cls-1" d="M398.75,223.45A175.32,175.32,0,1,1,223.43,48.13,175.32,175.32,0,0,1,398.75,223.45"/><path class="cls-2" d="M210.42,282.9l14.46-54.44L259.11,216l8.51-32-0.29-.79-33.69,12.31,24.27-91.4H189.07L157.32,223.37,130.82,233l-8.76,33,26.48-9.67-18.71,70.3H313.06L324.8,282.9H210.42"/><path class="cls-3" d="M566.7,385.29h-39V61.21h39V385.29Z"/><path class="cls-3" d="M629.36,96.44a23.29,23.29,0,0,1,5.8-16q5.8-6.54,17.2-6.54t17.3,6.54a23.07,23.07,0,0,1,5.91,16,22.31,22.31,0,0,1-5.91,15.82q-5.91,6.33-17.3,6.33t-17.2-6.33A22.52,22.52,0,0,1,629.36,96.44Zm42.2,288.85h-39V157h39V385.29Z"/><path class="cls-3" d="M787,101.72V157H829.6v30.17H787V328.92q0,13.73,5.7,20.6t19.41,6.86q6.75,0,18.57-2.53v31.46a113.82,113.82,0,0,1-30,4.19q-26.17,0-39.46-15.82t-13.29-44.94V187.17H706.38V157h41.57V101.72h39Z"/><path class="cls-3" d="M969.91,389.51q-46.42,0-75.54-30.49t-29.12-81.55V270.3q0-34,13-60.66t36.29-41.78a91.26,91.26,0,0,1,50.53-15.09q44.52,0,69.21,29.33t24.69,84v16.25H904.29q0.84,33.76,19.73,54.54t48,20.78q20.68,0,35-8.44a88,88,0,0,0,25.11-22.37L1056,345.41Q1027.3,389.52,969.91,389.51Zm-4.85-204.66q-23.63,0-39.67,17.2t-19.83,48.21h114.36v-3q-1.69-29.75-16-46.1T965.05,184.85Z"/><path class="cls-3" d="M1195.67,357.65q20.89,0,36.5-12.66t17.3-31.65h36.92q-1.06,19.62-13.5,37.35A89,89,0,0,1,1239.66,379a95.91,95.91,0,0,1-44,10.55q-46.63,0-74.16-31.12T1094,273.25v-6.54q0-33.34,12.24-59.29t35.13-40.3q22.89-14.35,54.12-14.35,38.4,0,63.83,23t27.11,59.71h-36.92q-1.69-22.15-16.77-36.4t-37.24-14.24q-29.75,0-46.1,21.42T1133,268.19v7.38q0,39.46,16.25,60.77T1195.67,357.65Z"/><path class="cls-3" d="M1319.94,269q0-33.55,13.19-60.34t36.71-41.35q23.52-14.56,53.7-14.56,46.63,0,75.43,32.28t28.8,85.87v2.74q0,33.34-12.76,59.82t-36.5,41.25q-23.74,14.77-54.54,14.77-46.42,0-75.22-32.28t-28.8-85.45V269Zm39.25,4.64q0,38,17.62,61t47.16,23q29.75,0,47.26-23.31t17.51-65.3q0-37.55-17.83-60.87t-47.37-23.31q-28.91,0-46.63,23T1359.19,273.68Z"/><path class="cls-3" d="M1576.93,96.44a23.29,23.29,0,0,1,5.8-16q5.8-6.54,17.2-6.54t17.3,6.54a23.07,23.07,0,0,1,5.91,16,22.3,22.3,0,0,1-5.91,15.82q-5.91,6.33-17.3,6.33t-17.2-6.33A22.52,22.52,0,0,1,1576.93,96.44Zm42.2,288.85h-39V157h39V385.29Z"/><path class="cls-3" d="M1718.51,157l1.27,28.69q26.16-32.92,68.36-32.92,72.37,0,73,81.65V385.29h-39V234.22q-0.21-24.69-11.29-36.5t-34.5-11.82q-19,0-33.34,10.13a68.74,68.74,0,0,0-22.37,26.58V385.29h-39V157h36.92Z"/></svg>