<?xml version="1.0" encoding="utf-8"?>
<!-- Generator: Adobe Illustrator 19.2.0, SVG Export Plug-In . SVG Version: 6.00 Build 0)  -->
<svg version="1.1" id="Layer_1" xmlns="http://www.w3.org/2000/svg" xmlns:xlink="http://www.w3.org/1999/xlink" x="0px" y="0px"
	 viewBox="0 0 2500 718" style="enable-background:new 0 0 2500 718;" xml:space="preserve">
<style type="text/css">
	.st0{fill:#474D55;}
	.st1{clip-path:url(#SVGID_3_);fill:url(#SVGID_4_);}
</style>
<path class="st0" d="M910.9,272.2c-7-2.4-21.2-4.6-35.2-4.6c-42.2,0-86.8,32.8-86.8,75.1v199.5h-96.2V187.7h91.5v35.2
	c21.2-25.8,61-42.2,103.3-42.2c14,0,21.2,2.4,32.8,2.4L910.9,272.2L910.9,272.2z M1018.9,0c32.8,0,61,25.8,61,61s-28.2,61-63.4,61
	c-35.2,0-63.4-25.8-63.4-61C955.5,25.8,983.7,0,1018.9,0 M1065.8,542.1h-96.2V187.7h96.2V542.1z M1347.4,180.7
	c-39.8,0-75.1,14-103.3,35.2v-28.2h-93.9V718h96.2V516.3c28.2,21.2,58.6,32.8,96.2,32.8c51.6,0,103.3-23.4,133.7-61
	c28.2-32.8,44.6-75.1,44.6-124.3C1521,260.5,1443.6,180.7,1347.4,180.7 M1335.7,462.3c-58.6,0-98.5-39.8-98.5-98.5
	s39.8-98.5,98.5-98.5c51.6,0,91.5,44.6,91.5,98.5C1427.2,420,1385,462.3,1335.7,462.3 M2004.3,21.2h96.2v520.9h-96.2V21.2z
	 M2487.8,485.7c-35.2,39.8-91.5,63.4-145.5,63.4c-105.6,0-185.3-72.7-185.3-185.3c0-98.5,68-185.3,173.7-185.3
	c98.5,0,168.9,82.1,168.9,180.7c0,9.4,0,18.8-2.4,28.2h-248.7c4.6,49.2,44.6,84.5,96.2,84.5c39.8,0,72.7-23.4,89.2-39.8
	L2487.8,485.7z M2398.6,319.2c-2.4-30.5-30.5-63.4-70.4-63.4c-40,0-72.7,30.5-75.1,63.4H2398.6L2398.6,319.2z M1774.4,180.7
	c-39.8,0-75.1,14-103.3,35.2v-28.2h-91.5V718h96.2V516.3c28.2,21.2,58.6,32.8,96.2,32.8c51.6,0,103.3-23.4,133.7-61
	c28.2-32.8,44.6-75.1,44.6-124.3C1948.1,260.5,1870.6,180.7,1774.4,180.7 M1762.7,462.3c-58.6,0-98.5-39.8-98.5-98.5
	s39.8-98.5,98.5-98.5c51.6,0,91.5,44.6,91.5,98.5C1854.2,420,1812,462.3,1762.7,462.3"/>
<g>
	<defs>
		<path id="SVGID_1_" d="M371.4,58.6C331.5,82.1,308,124.3,308,168.9c0,23.4,9.4,47,21.2,68c9.4,18.8,14,51.6-18.8,68
			c-23.4,14-54,4.6-68-18.8c-14-18.8-30.5-37.6-51.6-51.6c-39.8-23.4-86.8-23.4-126.7,0S0.6,300.4,0.6,345S24,431.8,64,455.2
			c39.8,23.4,86.8,23.4,126.7,0c21.2-11.8,37.6-30.5,49.2-51.6c9.4-16.4,35.2-37.6,68-18.8c23.4,14,30.5,44.6,18.8,68
			C315,474,308,497.5,308,520.9c0,44.6,23.4,86.8,63.4,110.3c39.8,23.4,86.8,23.4,126.7,0c39.8-23.4,63.4-65.7,63.4-110.3
			S538,434.1,498,410.6c-21.2-11.8-44.6-16.4-70.4-16.4c-21.2,0-49.2-14-49.2-49.2c0-28.2,21.2-49.2,49.2-49.2
			c23.4,0,49.2-4.6,70.4-16.4c39.8-23.4,63.4-65.7,63.4-110.3S538,82.2,498,58.8c-18.8-11.8-42.2-16.4-63.4-16.4
			C413.6,42.2,390,47,371.4,58.6"/>
	</defs>
	<linearGradient id="SVGID_2_" gradientUnits="userSpaceOnUse" x1="0.5776" y1="345.5424" x2="561.4408" y2="345.5424">
		<stop  offset="0" style="stop-color:#FFFFFF"/>
		<stop  offset="1" style="stop-color:#E7E7E7"/>
	</linearGradient>
	<use xlink:href="#SVGID_1_"  style="overflow:visible;fill:url(#SVGID_2_);"/>
	<clipPath id="SVGID_3_">
		<use xlink:href="#SVGID_1_"  style="overflow:visible;"/>
	</clipPath>
	
		<linearGradient id="SVGID_4_" gradientUnits="userSpaceOnUse" x1="1531.1482" y1="606.0485" x2="1550.8743" y2="606.0485" gradientTransform="matrix(21.373 21.373 21.373 -21.373 -45565.25 -19591.6738)">
		<stop  offset="0" style="stop-color:#FFFFFF"/>
		<stop  offset="1" style="stop-color:#E7E7E7"/>
	</linearGradient>
	<path class="st1" d="M282.1-239.3l586.6,588.9L282.1,936.2l-588.9-586.6L282.1-239.3z"/>
</g>
</svg>
